<?xml version="1.0" standalone="no"?>
<!DOCTYPE svg PUBLIC "-//W3C//DTD SVG 20010904//EN"
 "http://www.w3.org/TR/2001/REC-SVG-20010904/DTD/svg10.dtd">
<svg version="1.0" xmlns="http://www.w3.org/2000/svg"
 width="500.000000pt" height="500.000000pt" viewBox="0 0 500.000000 500.000000"
 preserveAspectRatio="xMidYMid meet">
<metadata>
Created by potrace 1.14, written by Peter Selinger 2001-2017
</metadata>
<g transform="translate(0.000000,500.000000) scale(0.100000,-0.100000)"
fill="#000000" stroke="none">
<path d="M300 2630 l0 -510 25 0 25 0 0 485 c0 418 2 485 15 485 9 0 21 -24
34 -67 28 -96 136 -474 179 -623 19 -69 38 -129 42 -133 4 -4 60 179 125 408
78 270 124 415 132 415 10 0 13 -96 13 -485 l0 -485 25 0 25 0 0 510 0 511
-57 -3 -57 -3 -20 -70 c-11 -38 -57 -198 -102 -355 l-81 -284 -16 54 c-9 30
-56 191 -103 358 l-87 302 -59 0 -58 0 0 -510z"/>
<path d="M1160 2718 c0 -423 0 -423 24 -473 38 -84 105 -125 200 -125 101 0
183 58 210 151 13 44 16 121 16 462 l0 408 -22 -3 -23 -3 -5 -420 c-5 -400 -6
-422 -26 -459 -31 -61 -64 -80 -142 -84 -57 -3 -72 0 -102 20 -20 13 -46 45
-60 73 l-25 50 -3 413 c-3 400 -4 412 -23 412 -18 0 -19 -11 -19 -422z"/>
<path d="M1240 2728 c0 -388 2 -416 20 -456 24 -54 71 -76 144 -69 58 5 98 41
115 104 7 24 11 187 11 436 l0 397 -25 0 -24 0 -3 -419 -3 -419 -24 -26 c-18
-19 -35 -26 -62 -26 -52 0 -67 8 -87 44 -15 28 -17 76 -20 439 -3 395 -4 407
-23 407 -18 0 -19 -11 -19 -412z"/>
<path d="M1817 3133 c-4 -3 -7 -15 -7 -25 0 -17 15 -18 260 -18 l260 0 0 25 0
25 -253 0 c-140 0 -257 -3 -260 -7z"/>
<path d="M2595 3128 c-2 -7 -54 -229 -115 -493 -61 -264 -113 -488 -116 -497
-4 -14 0 -18 20 -18 15 0 27 7 30 18 3 9 44 184 91 387 47 204 95 412 107 463
16 70 25 92 37 90 14 -3 93 -323 208 -835 26 -119 28 -123 53 -123 l26 0 -118
508 c-65 279 -118 508 -118 510 0 1 -23 2 -50 2 -32 0 -52 -5 -55 -12z"/>
<path d="M3110 2630 l0 -510 220 0 220 0 0 25 0 25 -200 0 -200 0 0 485 c0
478 0 485 -20 485 -20 0 -20 -7 -20 -510z"/>
<path d="M3190 2670 l0 -470 180 0 180 0 0 25 0 25 -160 0 -160 0 0 445 c0
438 0 445 -20 445 -20 0 -20 -7 -20 -470z"/>
<path d="M3861 3127 c-56 -18 -116 -84 -135 -146 -22 -75 -24 -623 -2 -695 33
-108 105 -160 226 -160 89 -1 144 25 186 86 48 68 54 117 54 423 0 301 -6 345
-52 416 -34 50 -117 89 -187 88 -31 -1 -71 -6 -90 -12z m179 -59 c32 -16 52
-36 70 -68 l25 -45 0 -325 0 -325 -25 -44 c-64 -114 -243 -122 -314 -14 -39
58 -49 163 -44 447 5 257 10 290 61 345 51 55 150 67 227 29z"/>
<path d="M3873 3040 c-75 -38 -78 -51 -81 -400 -3 -301 -2 -306 20 -349 33
-65 67 -86 136 -86 68 0 110 25 138 82 17 35 19 65 19 348 0 292 -1 312 -20
344 -45 76 -133 101 -212 61z m136 -46 c47 -33 51 -63 51 -356 0 -156 -5 -289
-10 -310 -22 -79 -111 -104 -172 -49 l-33 29 -3 306 c-3 330 2 366 50 386 37
14 92 11 117 -6z"/>
<path d="M4378 3099 c-12 -6 -18 -22 -18 -44 0 -54 30 -68 136 -64 92 4 114
17 114 64 0 42 -29 55 -126 55 -49 0 -97 -5 -106 -11z m193 -35 c21 -25 -14
-44 -80 -44 -73 0 -101 8 -101 29 0 28 9 31 90 31 59 0 81 -4 91 -16z"/>
<path d="M1817 3054 c-4 -4 -7 -15 -7 -25 0 -16 11 -19 98 -21 l97 -3 3 -442
2 -443 25 0 25 0 -2 468 -3 467 -116 3 c-63 1 -118 -1 -122 -4z"/>
<path d="M2090 2590 l0 -470 25 0 25 0 2 443 3 442 93 3 c90 3 93 4 90 25 -3
21 -8 22 -120 25 l-118 3 0 -471z"/>
<path d="M2591 2758 c-30 -128 -56 -243 -59 -255 -4 -23 -3 -23 112 -23 98 0
116 2 116 15 0 20 -98 454 -108 478 -4 11 -27 -67 -61 -215z m85 -98 c13 -56
24 -108 24 -116 0 -10 -14 -14 -56 -14 -54 0 -56 1 -50 23 3 12 16 66 28 119
12 54 24 96 26 93 2 -2 15 -49 28 -105z"/>
<path d="M740 2540 c-63 -220 -117 -397 -120 -393 -4 5 -55 179 -115 388 -59
209 -112 384 -117 390 -4 5 -7 -169 -6 -395 l3 -405 23 -3 22 -3 1 238 1 238
18 -55 c10 -30 42 -137 71 -237 l52 -183 48 0 48 0 19 63 c11 34 41 139 68
232 l49 170 3 -232 2 -233 25 0 25 0 0 410 c0 226 -1 410 -3 410 -1 0 -54
-180 -117 -400z"/>
<path d="M4360 2920 c0 -20 5 -20 122 -18 108 3 123 5 126 21 3 15 -8 17 -122
17 -120 0 -126 -1 -126 -20z"/>
<path d="M4390 2837 c-21 -10 -26 -21 -28 -60 l-3 -47 125 0 126 0 0 38 c0 43
-6 55 -37 71 -29 15 -152 14 -183 -2z m184 -43 c11 -29 -4 -34 -95 -34 -88 0
-89 0 -89 25 0 25 1 25 89 25 72 0 90 -3 95 -16z"/>
<path d="M4360 2665 c0 -12 17 -15 93 -15 62 0 99 -4 112 -13 36 -27 7 -37
-101 -37 -97 0 -104 -1 -104 -20 0 -19 7 -20 89 -20 90 0 139 11 153 33 13 21
9 46 -12 67 -17 17 -33 20 -125 20 -87 0 -105 -3 -105 -15z"/>
<path d="M4360 2450 c0 -56 3 -70 15 -70 9 0 15 9 15 25 l0 25 110 0 c103 0
110 1 110 20 0 19 -7 20 -110 20 l-110 0 0 25 c0 16 -6 25 -15 25 -12 0 -15
-14 -15 -70z"/>
<path d="M2515 2428 c-3 -13 -20 -87 -39 -165 l-33 -143 26 0 c25 0 27 5 50
107 13 58 28 121 33 140 l9 33 88 0 88 0 32 -140 c32 -134 34 -140 58 -140 19
0 24 4 21 18 -3 9 -20 83 -38 165 l-34 147 -128 0 c-124 0 -128 -1 -133 -22z"/>
<path d="M4376 2317 c-27 -20 -18 -77 15 -96 38 -21 75 -7 104 39 26 41 53 51
73 27 14 -16 3 -34 -23 -38 -11 -3 -21 -13 -23 -23 -4 -16 0 -18 29 -12 87 17
75 116 -14 116 -32 0 -40 -5 -62 -40 -20 -32 -31 -40 -56 -40 -26 0 -30 3 -27
23 2 14 11 23 26 25 12 2 22 10 22 18 0 18 -40 19 -64 1z"/>
<path d="M4570 2135 c0 -8 9 -15 20 -15 11 0 20 7 20 15 0 8 -9 15 -20 15 -11
0 -20 -7 -20 -15z"/>
</g>
</svg>
